<svg width="600" height="223" viewBox="0 0 600 223" fill="none" xmlns="http://www.w3.org/2000/svg">
<path d="M600 160.039C600 170.038 593.073 177.128 583.047 177.128C573.022 177.128 565.912 170.038 565.912 160.039C565.912 149.859 573.022 142.769 583.047 142.769C593.073 142.769 600 149.859 600 160.039Z" fill="white"/>
<path d="M470.762 176.218H436.978V2.18094H470.762V101.562L518.157 46.781H557.045L503.331 108.833L563.364 176.218H520.344L470.762 116.105V176.218Z" fill="white"/>
<path d="M331.55 105.682V176.218H297.766V46.7813H328.876V65.2031C338.355 52.3563 351.723 44.3574 368.736 44.3574C394.743 44.3574 412.728 61.3248 412.728 92.5933V176.218H379.188V103.986C379.188 84.8368 371.653 74.1715 356.341 74.1715C342.973 74.1715 331.55 84.8368 331.55 105.682Z" fill="white"/>
<path d="M285.373 46.7812L222.18 223H185.48L203.951 174.764L152.911 46.7812H189.368L221.937 135.497L251.589 46.7812H285.373Z" fill="white"/>
<path d="M144.614 122.165C144.614 155.373 117.879 178.643 74.1301 178.643C30.1381 178.643 2.67354 155.131 0 118.287H37.4296C38.4018 137.436 50.7973 149.798 73.4009 149.798C92.1157 149.798 105.483 141.557 105.483 127.498C105.483 116.59 96.9767 110.046 82.1507 107.137L53.4709 101.562C26.9785 96.4719 6.56233 82.1708 6.56233 53.3262C6.56233 22.3 34.0269 0 71.6996 0C110.831 0 139.51 22.7848 141.941 59.1436H104.511C103.296 40.9642 90.6574 28.6022 72.1857 28.6022C54.2 28.6022 43.9919 38.7827 43.9919 50.9023C43.9919 62.7795 54.9292 67.8697 67.5677 70.2936L97.4628 76.3534C128.087 82.4132 144.614 96.4719 144.614 122.165Z" fill="white"/>
</svg>
