<svg width="600" height="224" viewBox="0 0 600 224" fill="none" xmlns="http://www.w3.org/2000/svg">
<path d="M600 159.674C600 170.387 592.585 177.984 581.853 177.984C571.121 177.984 563.51 170.387 563.51 159.674C563.51 148.766 571.121 141.17 581.853 141.17C592.585 141.17 600 148.766 600 159.674Z" fill="#EAE0D2"/>
<path d="M469.997 177.009H436.092V2.19196H469.997V102.018L517.56 46.992H556.586L502.681 109.322L562.928 177.009H519.755L469.997 116.627V177.009Z" fill="#EAE0D2"/>
<path d="M332.729 106.157V177.009H298.825V46.9918H330.046V65.4961C339.559 52.5918 352.974 44.557 370.048 44.557C396.147 44.557 414.197 61.6005 414.197 93.0092V177.009H380.536V104.453C380.536 85.2179 372.975 74.5048 357.608 74.5048C344.193 74.5048 332.729 85.2179 332.729 106.157Z" fill="#EAE0D2"/>
<path d="M286.386 46.9912L222.969 224H186.138L204.675 175.548L153.453 46.9912H190.04L222.725 136.104L252.482 46.9912H286.386Z" fill="#EAE0D2"/>
<path d="M145.129 122.713C145.129 156.07 118.299 179.444 74.3939 179.444C30.2454 179.444 2.68306 155.826 0 118.817H37.5628C38.5385 138.052 50.9781 150.47 73.6622 150.47C92.4436 150.47 105.859 142.191 105.859 128.07C105.859 117.113 97.3219 110.539 82.4431 107.617L53.6612 102.017C27.0745 96.9044 6.58569 82.5392 6.58569 53.5653C6.58569 22.4 34.148 0 71.9548 0C111.225 0 140.007 22.887 142.446 59.4088H104.883C103.664 41.1479 90.9801 28.7305 72.4426 28.7305C54.3929 28.7305 44.1485 38.9566 44.1485 51.1305C44.1485 63.0609 55.1247 68.174 67.8082 70.6088L97.8097 76.6957C128.543 82.7827 145.129 96.9044 145.129 122.713Z" fill="#EAE0D2"/>
</svg>
