<svg width="600" height="224" viewBox="0 0 600 224" fill="none" xmlns="http://www.w3.org/2000/svg">
<path d="M600 160.757C600 170.8 593.073 177.922 583.047 177.922C573.022 177.922 565.912 170.8 565.912 160.757C565.912 150.531 573.022 143.409 583.047 143.409C593.073 143.409 600 150.531 600 160.757Z" fill="#22C55E"/>
<path d="M470.762 177.008H436.978V2.19072H470.762V102.017L518.157 46.9908H557.045L503.331 109.321L563.364 177.008H520.344L470.762 116.626V177.008Z" fill="black"/>
<path d="M331.55 106.156V177.009H297.766V46.9911H328.876V65.4954C338.355 52.5911 351.723 44.5563 368.736 44.5563C394.743 44.5563 412.728 61.5998 412.728 93.0085V177.009H379.188V104.452C379.188 85.2172 371.653 74.5042 356.341 74.5042C342.973 74.5042 331.55 85.2172 331.55 106.156Z" fill="black"/>
<path d="M285.373 46.991L222.18 224H185.48L203.951 175.548L152.911 46.991H189.368L221.937 136.104L251.589 46.991H285.373Z" fill="black"/>
<path d="M144.614 122.713C144.614 156.07 117.879 179.444 74.1301 179.444C30.1381 179.444 2.67354 155.826 0 118.818H37.4296C38.4018 138.052 50.7973 150.47 73.4009 150.47C92.1157 150.47 105.483 142.192 105.483 128.07C105.483 117.113 96.9767 110.539 82.1507 107.618L53.4709 102.018C26.9785 96.9045 6.56233 82.5393 6.56233 53.5653C6.56233 22.4 34.0269 0 71.6996 0C110.831 0 139.51 22.887 141.941 59.4088H104.511C103.296 41.1479 90.6574 28.7305 72.1857 28.7305C54.2 28.7305 43.9919 38.9566 43.9919 51.1305C43.9919 63.061 54.9292 68.174 67.5677 70.6088L97.4628 76.6958C128.087 82.7828 144.614 96.9045 144.614 122.713Z" fill="black"/>
</svg>
