<svg width="599" height="224" viewBox="0 0 599 224" fill="none" xmlns="http://www.w3.org/2000/svg">
<path d="M599 159.674C599 170.387 591.597 177.984 580.883 177.984C570.169 177.984 562.571 170.387 562.571 159.674C562.571 148.766 570.169 141.17 580.883 141.17C591.597 141.17 599 148.766 599 159.674Z" fill="#16A34A"/>
<path d="M469.213 177.009H435.366V2.19196H469.213V102.018L516.697 46.992H555.659L501.843 109.322L561.99 177.009H518.889L469.213 116.627V177.009Z" fill="#302A24"/>
<path d="M332.175 106.157V177.009H298.327V46.9918H329.496V65.4961C338.993 52.5918 352.386 44.557 369.431 44.557C395.487 44.557 413.506 61.6005 413.506 93.0092V177.009H379.902V104.453C379.902 85.2179 372.353 74.5048 357.012 74.5048C343.62 74.5048 332.175 85.2179 332.175 106.157Z" fill="#302A24"/>
<path d="M285.909 46.9912L222.597 224H185.827L204.334 175.548L153.197 46.9912H189.723L222.353 136.104L252.061 46.9912H285.909Z" fill="#302A24"/>
<path d="M144.887 122.713C144.887 156.07 118.101 179.444 74.2699 179.444C30.195 179.444 2.67859 155.826 0 118.817H37.5002C38.4743 138.052 50.8932 150.47 73.5394 150.47C92.2895 150.47 105.682 142.191 105.682 128.07C105.682 117.113 97.1597 110.539 82.3057 107.617L53.5718 102.017C27.0294 96.9044 6.57472 82.5392 6.57472 53.5653C6.57472 22.4 34.0911 0 71.8349 0C111.04 0 139.774 22.887 142.209 59.4088H104.708C103.491 41.1479 90.8285 28.7305 72.3219 28.7305C54.3023 28.7305 44.075 38.9566 44.075 51.1305C44.075 63.0609 55.0328 68.174 67.6952 70.6088L97.6467 76.6957C128.329 82.7827 144.887 96.9044 144.887 122.713Z" fill="#302A24"/>
</svg>
